REM DIRINDEX 1\2,1\3,1\4,1\5
REM DIRNAME folder01,folder02,folder03,folder04,folder05
TITLE ""
FILE "Round-08-178-179.mp3" MP3
  TRACK 01 AUDIO
    TITLE "0:"
    INDEX 01 00:00:00
  TRACK 02 AUDIO
    TITLE "2:cjc093_1957"
    INDEX 01 00:00:01
  TRACK 03 AUDIO
    TITLE "0:"
    INDEX 01 00:01:03
  TRACK 04 AUDIO
    TITLE "3:cjc093_1958"
    INDEX 01 00:01:36
  TRACK 05 AUDIO
    TITLE "0:"
    INDEX 01 00:03:08
  TRACK 06 AUDIO
    TITLE "4:cjc093_1959"
    INDEX 01 00:03:23
  TRACK 07 AUDIO
    TITLE "0:"
    INDEX 01 00:05:44
  TRACK 08 AUDIO
    TITLE "2:cjc093_1960"
    INDEX 01 00:06:57
  TRACK 09 AUDIO
    TITLE "0:"
    INDEX 01 00:07:56
  TRACK 10 AUDIO
    TITLE "3:cjc093_1961"
    INDEX 01 00:07:72
  TRACK 11 AUDIO
    TITLE "0:"
    INDEX 01 00:10:35
  TRACK 12 AUDIO
    TITLE "4:cjc093_1962"
    INDEX 01 00:10:55
  TRACK 13 AUDIO
    TITLE "0:"
    INDEX 01 00:13:16
  TRACK 14 AUDIO
    TITLE "3:cjc093_1963"
    INDEX 01 00:14:19
  TRACK 15 AUDIO
    TITLE "0:"
    INDEX 01 00:15:60
  TRACK 16 AUDIO
    TITLE "4:cjc093_1964"
    INDEX 01 00:16:24
  TRACK 17 AUDIO
    TITLE "0:"
    INDEX 01 00:19:22
  TRACK 18 AUDIO
    TITLE "2:cjc093_1965"
    INDEX 01 00:20:26
  TRACK 19 AUDIO
    TITLE "0:"
    INDEX 01 00:21:19
  TRACK 20 AUDIO
    TITLE "3:cjc093_1966"
    INDEX 01 00:21:70
  TRACK 21 AUDIO
    TITLE "0:"
    INDEX 01 00:23:14
  TRACK 22 AUDIO
    TITLE "4:cjc093_1967"
    INDEX 01 00:23:61
  TRACK 23 AUDIO
    TITLE "0:"
    INDEX 01 00:27:00
  TRACK 24 AUDIO
    TITLE "2:cjc093_1968"
    INDEX 01 00:28:12
  TRACK 25 AUDIO
    TITLE "0:"
    INDEX 01 00:29:27
  TRACK 26 AUDIO
    TITLE "3:cjc093_1969"
    INDEX 01 00:29:66
  TRACK 27 AUDIO
    TITLE "0:"
    INDEX 01 00:31:39
  TRACK 28 AUDIO
    TITLE "4:cjc093_1970"
    INDEX 01 00:32:01
  TRACK 29 AUDIO
    TITLE "0:"
    INDEX 01 00:36:56
  TRACK 30 AUDIO
    TITLE "2:cjc093_1971"
    INDEX 01 00:37:67
  TRACK 31 AUDIO
    TITLE "0:"
    INDEX 01 00:38:67
  TRACK 32 AUDIO
    TITLE "3:cjc093_1972"
    INDEX 01 00:39:25
  TRACK 33 AUDIO
    TITLE "0:"
    INDEX 01 00:40:60
  TRACK 34 AUDIO
    TITLE "4:cjc093_1973"
    INDEX 01 00:41:00
  TRACK 35 AUDIO
    TITLE "0:"
    INDEX 01 00:43:70
  TRACK 36 AUDIO
    TITLE "2:cjc093_1974"
    INDEX 01 00:45:04
  TRACK 37 AUDIO
    TITLE "0:"
    INDEX 01 00:46:15
  TRACK 38 AUDIO
    TITLE "3:cjc093_1975"
    INDEX 01 00:46:68
  TRACK 39 AUDIO
    TITLE "0:"
    INDEX 01 00:48:44
  TRACK 40 AUDIO
    TITLE "4:cjc093_1976"
    INDEX 01 00:49:16
  TRACK 41 AUDIO
    TITLE "0:"
    INDEX 01 00:52:14
  TRACK 42 AUDIO
    TITLE "3:cjc093_1977"
    INDEX 01 00:53:21
  TRACK 43 AUDIO
    TITLE "0:"
    INDEX 01 00:54:66
  TRACK 44 AUDIO
    TITLE "4:cjc093_1978"
    INDEX 01 00:54:74
  TRACK 45 AUDIO
    TITLE "0:"
    INDEX 01 00:57:31
  TRACK 46 AUDIO
    TITLE "2:cjc093_1979"
    INDEX 01 00:58:40
  TRACK 47 AUDIO
    TITLE "0:"
    INDEX 01 00:59:47
  TRACK 48 AUDIO
    TITLE "3:cjc093_1980"
    INDEX 01 01:00:00
  TRACK 49 AUDIO
    TITLE "0:"
    INDEX 01 01:01:31
  TRACK 50 AUDIO
    TITLE "4:cjc093_1981"
    INDEX 01 01:01:33
  TRACK 51 AUDIO
    TITLE "0:"
    INDEX 01 01:04:19
  TRACK 52 AUDIO
    TITLE "2:cjc093_1982"
    INDEX 01 01:05:17
  TRACK 53 AUDIO
    TITLE "0:"
    INDEX 01 01:06:22
  TRACK 54 AUDIO
    TITLE "3:cjc093_1983"
    INDEX 01 01:06:59
  TRACK 55 AUDIO
    TITLE "0:"
    INDEX 01 01:08:36
  TRACK 56 AUDIO
    TITLE "4:cjc093_1984"
    INDEX 01 01:09:12
  TRACK 57 AUDIO
    TITLE "0:"
    INDEX 01 01:11:19
  TRACK 58 AUDIO
    TITLE "2:cjc093_1985"
    INDEX 01 01:12:32
  TRACK 59 AUDIO
    TITLE "0:"
    INDEX 01 01:13:59
  TRACK 60 AUDIO
    TITLE "3:cjc093_1986"
    INDEX 01 01:14:17
  TRACK 61 AUDIO
    TITLE "0:"
    INDEX 01 01:15:56
  TRACK 62 AUDIO
    TITLE "4:cjc093_1987"
    INDEX 01 01:15:66
  TRACK 63 AUDIO
    TITLE "0:"
    INDEX 01 01:17:57
  TRACK 64 AUDIO
    TITLE "2:cjc093_1988"
    INDEX 01 01:18:68
  TRACK 65 AUDIO
    TITLE "0:"
    INDEX 01 01:20:20
  TRACK 66 AUDIO
    TITLE "3:cjc093_1989"
    INDEX 01 01:20:44
  TRACK 67 AUDIO
    TITLE "0:"
    INDEX 01 01:22:11
  TRACK 68 AUDIO
    TITLE "4:cjc093_1990"
    INDEX 01 01:23:01
  TRACK 69 AUDIO
    TITLE "0:"
    INDEX 01 01:26:21
